<?xml version="1.0" standalone="no"?>
<!DOCTYPE svg PUBLIC "-//W3C//DTD SVG 20010904//EN"
 "http://www.w3.org/TR/2001/REC-SVG-20010904/DTD/svg10.dtd">
<svg version="1.0" xmlns="http://www.w3.org/2000/svg"
 width="1873.000000pt" height="1873.000000pt" viewBox="0 0 1873.000000 1873.000000"
 preserveAspectRatio="xMidYMid meet">
<metadata>
Created by potrace 1.11, written by Peter Selinger 2001-2013
</metadata>
<g transform="translate(0.000000,1873.000000) scale(0.100000,-0.100000)"
fill="#000000" stroke="none">
<path d="M152 13994 c-62 -31 -115 -90 -136 -152 -14 -41 -16 -416 -16 -3651
l0 -3606 24 -50 c27 -60 72 -107 130 -138 59 -31 183 -31 242 0 58 31 103 78
130 138 l24 50 0 3606 c0 3997 6 3653 -66 3737 -52 61 -122 92 -209 92 -56 0
-82 -5 -123 -26z"/>
<path d="M6485 13996 c-55 -25 -118 -89 -143 -145 -16 -33 -17 -311 -17 -3656
l0 -3620 27 -51 c109 -207 393 -204 495 4 l28 57 3 1908 2 1907 1020 0 1020 0
1 -1932 c0 -1453 3 -1941 12 -1965 22 -60 72 -117 128 -148 47 -26 64 -30 134
-30 58 0 90 5 115 19 59 31 119 96 140 154 20 52 20 81 20 2137 0 2056 0 2085
-20 2137 -25 68 -90 132 -158 158 -51 20 -81 20 -1232 20 l-1180 0 -2 1433
c-3 1604 4 1461 -76 1549 -52 58 -121 88 -202 88 -47 0 -79 -7 -115 -24z"/>
<path d="M10244 14001 c-59 -27 -109 -75 -138 -133 l-26 -52 0 -3612 c0 -3964
-5 -3652 59 -3733 16 -20 53 -50 83 -67 46 -25 63 -29 133 -29 63 0 89 5 120
22 51 27 110 88 129 133 14 32 15 -56 16 -897 l0 -933 4050 0 4050 0 0 3860 0
3860 -2662 0 c-2611 1 -2662 1 -2627 20 56 30 116 101 133 161 32 108 11 196
-67 274 -93 92 35 85 -1508 85 l-1358 0 -3 433 -3 432 -29 53 c-34 61 -85 106
-146 127 -59 21 -156 19 -206 -4z m1360 -3073 c27 -8 60 -31 96 -68 37 -36 60
-69 68 -96 9 -32 12 -489 12 -1968 l0 -1926 1030 0 1030 0 0 1935 0 1935 22
47 c45 96 121 145 236 151 63 4 79 1 127 -22 58 -29 93 -64 128 -130 l22 -41
0 -2110 0 -2110 -22 -41 c-35 -65 -69 -100 -125 -128 l-52 -26 -1365 0 c-1300
0 -1368 1 -1406 19 -60 27 -103 67 -133 125 l-27 51 0 2110 0 2110 27 51 c63
120 195 172 332 132z m6371 -12 c52 -24 101 -72 132 -129 17 -30 18 -143 18
-2152 l0 -2120 -22 -40 c-28 -53 -78 -99 -133 -124 -44 -20 -60 -21 -1237 -21
l-1193 0 0 -683 c0 -755 1 -745 -63 -829 -49 -64 -122 -98 -211 -98 -85 0
-136 21 -191 75 -20 21 -46 56 -56 79 -18 40 -19 134 -19 2956 0 2838 1 2916
19 2957 25 55 92 118 144 137 36 12 225 15 1402 15 l1360 1 50 -24z"/>
<path d="M15540 8635 l0 -1765 1025 0 1025 0 0 1765 0 1765 -1025 0 -1025 0 0
-1765z"/>
<path d="M1430 12151 c-81 -26 -141 -80 -176 -156 -23 -48 -24 -59 -23 -285 0
-154 5 -246 12 -267 25 -68 73 -120 141 -153 60 -30 72 -32 133 -28 107 8 186
59 236 152 21 39 22 52 22 296 0 229 -2 259 -19 290 -26 50 -84 108 -131 132
-43 23 -152 33 -195 19z"/>
<path d="M1430 10991 c-78 -24 -141 -79 -176 -156 l-24 -50 0 -2102 0 -2101
33 -63 c53 -102 152 -157 268 -146 93 8 176 64 222 151 l22 41 0 2120 c0 2047
-1 2121 -19 2155 -63 119 -209 186 -326 151z"/>
<path d="M2746 10930 c-57 -22 -118 -78 -149 -135 l-22 -40 0 -2120 0 -2120
22 -40 c25 -47 84 -105 133 -131 33 -18 87 -19 1233 -22 l1197 -2 0 -530 0
-530 -1292 0 -1293 0 -50 -24 c-54 -25 -119 -90 -140 -140 -54 -130 0 -282
125 -351 l55 -30 1460 -3 c1619 -3 1511 -7 1593 64 22 19 53 60 69 92 l28 57
0 2905 0 2905 -28 57 c-16 32 -47 73 -70 93 -80 69 3 65 -1481 65 -1299 -1
-1343 -2 -1390 -20z m2414 -2295 l0 -1765 -1020 0 -1020 0 0 1765 0 1765 1020
0 1020 0 0 -1765z"/>
</g>
</svg>
